<?xml version="1.0" encoding="UTF-8"?>
<!DOCTYPE svg PUBLIC "-//W3C//DTD SVG 1.1//EN" "http://www.w3.org/Graphics/SVG/1.1/DTD/svg11.dtd">
<!-- Creator: CorelDRAW 2020 (64-Bit) -->
<svg xmlns="http://www.w3.org/2000/svg" xml:space="preserve" width="3.8259mm" height="4.9867mm" version="1.1" style="shape-rendering:geometricPrecision; text-rendering:geometricPrecision; image-rendering:optimizeQuality; fill-rule:evenodd; clip-rule:evenodd"
viewBox="0 0 7.84 10.21"
 xmlns:xlink="http://www.w3.org/1999/xlink"
 xmlns:xodm="http://www.corel.com/coreldraw/odm/2003">
 <defs>
  <style type="text/css">
   <![CDATA[
    .fil0 {fill:#282848}
   ]]>
  </style>
 </defs>
 <g id="Layer_x0020_1">
  <metadata id="CorelCorpID_0Corel-Layer"/>
  <g id="_2065671225024">
   <path class="fil0" d="M1.3 0l5.24 0c0.71,0 1.3,0.58 1.3,1.3l0 7.62c0,0.71 -0.58,1.3 -1.3,1.3l-5.24 0c-0.71,0 -1.3,-0.58 -1.3,-1.3l0 -7.62c0,-0.71 0.58,-1.3 1.3,-1.3zm0 0.77l5.24 0c0.29,0 0.53,0.24 0.53,0.53l0 7.62c0,0.29 -0.24,0.53 -0.53,0.53l-5.24 0c-0.29,0 -0.53,-0.24 -0.53,-0.53l0 -7.62c0,-0.29 0.24,-0.53 0.53,-0.53z"/>
   <rect class="fil0" x="1.58" y="2.38" width="0.79" height="0.78"/>
   <rect class="fil0" x="3.15" y="2.38" width="3.13" height="0.78"/>
   <rect class="fil0" x="1.58" y="3.93" width="0.79" height="0.78"/>
   <rect class="fil0" x="3.15" y="3.93" width="2.71" height="0.78"/>
   <rect class="fil0" x="1.58" y="5.47" width="0.79" height="0.78"/>
   <rect class="fil0" x="3.15" y="5.47" width="3.13" height="0.78"/>
   <rect class="fil0" x="1.58" y="7.02" width="0.79" height="0.78"/>
   <rect class="fil0" x="3.15" y="7.02" width="2.71" height="0.78"/>
  </g>
 </g>
</svg>
