<?xml version="1.0" encoding="UTF-8"?>
<!DOCTYPE svg PUBLIC "-//W3C//DTD SVG 1.1//EN" "http://www.w3.org/Graphics/SVG/1.1/DTD/svg11.dtd">
<!-- Creator: CorelDRAW 2020 (64-Bit) -->
<svg xmlns="http://www.w3.org/2000/svg" xml:space="preserve" width="5.9469mm" height="5.947mm" version="1.1" style="shape-rendering:geometricPrecision; text-rendering:geometricPrecision; image-rendering:optimizeQuality; fill-rule:evenodd; clip-rule:evenodd"
viewBox="0 0 16.28 16.28"
 xmlns:xlink="http://www.w3.org/1999/xlink"
 xmlns:xodm="http://www.corel.com/coreldraw/odm/2003">
 <defs>
  <style type="text/css">
   <![CDATA[
    .fil0 {fill:#FBFBFB}
   ]]>
  </style>
 </defs>
 <g id="Layer_x0020_1">
  <metadata id="CorelCorpID_0Corel-Layer"/>
  <g id="_2065255001632">
   <path class="fil0" d="M2.48 3.63c0.05,-0.07 1.01,-1.08 1.11,-1.08 0.18,0 1.15,0.92 1.46,0.92 0.22,0 0.73,-0.36 1.28,-0.54 0.9,-0.3 0.65,-0.14 0.93,-1.55 0.11,-0.58 -0.18,-0.45 1.55,-0.45 0.27,0 0.12,1.57 0.59,1.82l0.9 0.31c0.69,0.28 0.78,0.6 1.33,0.18l1.05 -0.73c0.11,0 0.46,0.41 0.55,0.5 0.72,0.72 0.72,0.33 -0.19,1.64 -0.45,0.65 -0.08,0.52 0.33,1.74 0.05,0.15 0.08,0.32 0.15,0.45 0.08,0.15 0.16,0.21 0.35,0.26l1.28 0.22c0.09,0.01 0.2,0.01 0.2,0.12l0 1.4c0,0.11 -0.07,0.1 -0.17,0.12l-0.79 0.13c-0.35,0.06 -0.73,0.06 -0.87,0.34 -0.07,0.15 -0.09,0.3 -0.15,0.46 -0.05,0.13 -0.11,0.29 -0.17,0.44 -0.42,1.01 -0.61,0.64 0.08,1.66 0.1,0.15 0.43,0.56 0.47,0.71l-1.07 1.09c-0.24,-0.07 -1.23,-0.93 -1.44,-0.93 -0.41,0 -0.7,0.32 -1.37,0.54 -0.7,0.22 -0.65,0.11 -0.8,1.01l-0.13 0.77c-0.02,0.09 -0.01,0.2 -0.12,0.2 -1.63,0 -1.47,0.12 -1.54,-0.31 -0.02,-0.11 -0.04,-0.24 -0.06,-0.38 -0.24,-1.41 -0.06,-0.94 -1.28,-1.45 -0.72,-0.3 -0.7,-0.54 -1.24,-0.16 -1.36,0.95 -0.97,0.92 -1.64,0.25 -0.63,-0.63 -0.65,-0.48 -0.31,-0.93 0.16,-0.22 0.7,-0.9 0.7,-1.14 0,-0.2 -0.36,-0.74 -0.53,-1.25 -0.05,-0.15 -0.09,-0.32 -0.15,-0.46 -0.17,-0.39 -0.67,-0.35 -1.31,-0.47 -0.15,-0.03 -0.39,-0.08 -0.52,-0.08 -0.06,-0.25 -0.06,-1.34 0,-1.59l1.01 -0.16c1.08,-0.21 0.61,-0.15 1.1,-1.25 0.32,-0.72 0.53,-0.77 0.18,-1.24l-0.77 -1.1zm3.72 -1.62c-0.11,0.01 -0.46,0.15 -0.57,0.19 -0.16,0.06 -0.39,0.21 -0.54,0.25 -0.11,-0.07 -0.21,-0.16 -0.33,-0.24 -0.36,-0.25 -0.73,-0.62 -1.16,-0.62 -0.58,0 -0.91,0.48 -1.22,0.79 -0.47,0.47 -0.82,0.64 -0.82,1.34 0,0.3 0.24,0.58 0.38,0.77 0.08,0.12 0.15,0.22 0.24,0.33 0.09,0.12 0.16,0.24 0.25,0.36 -0.07,0.08 -0.12,0.25 -0.19,0.38 -0.27,0.55 -0.13,0.68 -0.41,0.73 -0.18,0.03 -0.33,0.05 -0.52,0.08 -0.33,0.06 -0.67,0.09 -0.88,0.26 -0.2,0.16 -0.41,0.42 -0.41,0.77l0 1.53c0,0.43 0.33,0.79 0.65,0.9l1.35 0.24c0.01,0.13 0.14,0.44 0.19,0.57 0.06,0.16 0.21,0.39 0.25,0.54l-0.48 0.67c-0.14,0.2 -0.38,0.47 -0.38,0.8 0,0.6 0.46,0.92 0.77,1.23 0.53,0.53 1.07,1.24 1.96,0.58 0.17,-0.13 0.33,-0.23 0.5,-0.35 0.09,-0.07 0.15,-0.11 0.24,-0.18 0.16,-0.12 0.29,0.04 0.59,0.16 0.11,0.05 0.22,0.08 0.33,0.12 0.3,0.11 0.23,0 0.32,0.54 0.09,0.56 0.16,1.53 1.08,1.53l1.53 0c0.38,0 0.7,-0.27 0.85,-0.52 0.12,-0.22 0.19,-0.81 0.24,-1.12 0.06,-0.39 0.03,-0.32 0.26,-0.4 0.18,-0.07 0.34,-0.12 0.5,-0.2 0.55,-0.28 0.37,-0.16 1.26,0.43 0.94,0.63 1.42,-0.1 2.12,-0.8 0.47,-0.47 0.55,-0.52 0.55,-1.1 0,-0.43 -0.83,-1.3 -0.83,-1.4l0.33 -0.81c0.12,-0.3 0.06,-0.29 0.25,-0.32 0.45,-0.09 1.14,-0.12 1.43,-0.35 0.2,-0.16 0.41,-0.42 0.41,-0.77l0 -1.59c0,-0.31 -0.23,-0.59 -0.42,-0.72 -0.26,-0.19 -0.96,-0.26 -1.38,-0.33 -0.18,-0.03 -0.17,-0.01 -0.27,-0.31 -0.08,-0.25 -0.32,-0.72 -0.35,-0.83 0.28,-0.41 0.86,-1.05 0.86,-1.49 0,-0.27 -0.14,-0.56 -0.28,-0.71 -0.17,-0.18 -0.33,-0.33 -0.51,-0.51 -0.47,-0.47 -1.03,-1.24 -1.91,-0.59 -0.09,0.07 -0.77,0.61 -0.91,0.59 -0.08,-0.02 -0.65,-0.33 -1.1,-0.43l-0.24 -1.32c-0.11,-0.33 -0.48,-0.65 -0.9,-0.65l-1.53 0c-0.41,0 -0.76,0.29 -0.9,0.66l-0.24 1.35z"/>
   <path class="fil0" d="M5.56 8.2c0,-0.92 0.36,-1.64 1.08,-2.17 0.1,-0.08 0.25,-0.17 0.38,-0.23 1.67,-0.82 3.7,0.45 3.7,2.21 0,0.96 -0.31,1.67 -1.08,2.23 -1.58,1.17 -4.08,0.06 -4.08,-2.04zm6.11 -0.06c0,-2.8 -3.21,-4.54 -5.53,-2.89 -1.64,1.16 -2.02,3.43 -0.8,5.02 1.43,1.86 4.25,1.87 5.68,-0.11 0.34,-0.47 0.65,-1.23 0.65,-2.02z"/>
  </g>
 </g>
</svg>
