<?xml version="1.0" encoding="UTF-8"?>
<!DOCTYPE svg PUBLIC "-//W3C//DTD SVG 1.1//EN" "http://www.w3.org/Graphics/SVG/1.1/DTD/svg11.dtd">
<!-- Creator: CorelDRAW 2020 (64-Bit) -->
<svg xmlns="http://www.w3.org/2000/svg" xml:space="preserve" width="5.9994mm" height="6mm" version="1.1" style="shape-rendering:geometricPrecision; text-rendering:geometricPrecision; image-rendering:optimizeQuality; fill-rule:evenodd; clip-rule:evenodd"
viewBox="0 0 36.13 36.13"
 xmlns:xlink="http://www.w3.org/1999/xlink"
 xmlns:xodm="http://www.corel.com/coreldraw/odm/2003">
 <defs>
  <style type="text/css">
   <![CDATA[
    .fil0 {fill:black}
   ]]>
  </style>
 </defs>
 <g id="Layer_x0020_1">
  <metadata id="CorelCorpID_0Corel-Layer"/>
  <g id="_2066045959952">
   <path class="fil0" d="M16.67 7.18c2.4,-0.22 3.38,0.04 5.43,0.63 6.02,-6.97 9.58,-1.63 9.65,0.78 0.07,2.61 -2.15,4.17 -3.32,5.34 -1.57,1.57 -7.31,7.77 -9,8.31 -3.66,1.16 -4.35,-2.15 -6.55,-1.64 -1.11,0.26 -3.3,2.47 0.38,4.83 7.18,4.6 12.31,-2.38 16.54,-6.61 2.26,-2.26 6.73,-5.45 6.29,-10.83 -0.59,-7.14 -9.38,-10.86 -15.15,-5.29 -1.11,1.07 -3.64,3.3 -4.27,4.49z"/>
   <path class="fil0" d="M19.45 28.95c-2.47,0.22 -3.32,-0.05 -5.43,-0.63 -6.05,6.98 -9.58,1.61 -9.65,-0.78 -0.07,-2.61 2.14,-4.17 3.32,-5.34 1.56,-1.56 7.33,-7.77 9,-8.31 3.66,-1.17 4.35,2.15 6.55,1.64 1.12,-0.26 3.3,-2.47 -0.38,-4.83 -4.64,-2.98 -8.84,-1.09 -12.21,2.29 -1.5,1.5 -2.83,2.83 -4.33,4.33 -2.27,2.27 -6.73,5.43 -6.29,10.83 0.59,7.12 9.37,10.87 15.15,5.29 1.09,-1.05 3.67,-3.33 4.27,-4.49z"/>
  </g>
 </g>
</svg>
