<?xml version="1.0" encoding="UTF-8"?>
<!DOCTYPE svg PUBLIC "-//W3C//DTD SVG 1.1//EN" "http://www.w3.org/Graphics/SVG/1.1/DTD/svg11.dtd">
<!-- Creator: CorelDRAW 2020 (64-Bit) -->
<svg xmlns="http://www.w3.org/2000/svg" xml:space="preserve" width="5.8446mm" height="6.6515mm" version="1.1" style="shape-rendering:geometricPrecision; text-rendering:geometricPrecision; image-rendering:optimizeQuality; fill-rule:evenodd; clip-rule:evenodd"
viewBox="0 0 13.3 15.14"
 xmlns:xlink="http://www.w3.org/1999/xlink"
 xmlns:xodm="http://www.corel.com/coreldraw/odm/2003">
 <defs>
  <style type="text/css">
   <![CDATA[
    .fil0 {fill:#96989A;fill-rule:nonzero}
   ]]>
  </style>
 </defs>
 <g id="Layer_x0020_1">
  <metadata id="CorelCorpID_0Corel-Layer"/>
  <path class="fil0" d="M1.62 3.46l7.01 0c0.45,0 0.85,0.18 1.15,0.48 0.29,0.29 0.48,0.7 0.48,1.15l0 8.43c0,0.45 -0.18,0.85 -0.48,1.15 -0.29,0.29 -0.7,0.48 -1.15,0.48l-7.01 0c-0.45,0 -0.85,-0.18 -1.15,-0.48 -0.29,-0.29 -0.48,-0.7 -0.48,-1.15l0 -8.43c0,-0.45 0.18,-0.85 0.48,-1.15 0.29,-0.29 0.7,-0.48 1.15,-0.48zm7.01 1.14l-7.01 0c-0.13,0 -0.25,0.06 -0.34,0.14 -0.09,0.09 -0.14,0.21 -0.14,0.34l0 8.43c0,0.13 0.06,0.25 0.14,0.34 0.09,0.09 0.21,0.14 0.34,0.14l7.01 0c0.13,0 0.25,-0.06 0.34,-0.14 0.09,-0.09 0.14,-0.21 0.14,-0.34l0 -8.43c0,-0.13 -0.06,-0.25 -0.14,-0.34 -0.09,-0.09 -0.21,-0.14 -0.34,-0.14z"/>
  <path class="fil0" d="M4.66 0l7.01 0c0.45,0 0.85,0.18 1.15,0.48 0.29,0.29 0.48,0.7 0.48,1.15l0 8.43c0,0.45 -0.18,0.85 -0.48,1.15 -0.29,0.29 -0.7,0.48 -1.15,0.48l-2.56 0 0 -6.59c0,-0.13 -0.06,-0.25 -0.14,-0.34 -0.09,-0.09 -0.21,-0.14 -0.34,-0.14l-5.6 0 0 -2.98c0,-0.45 0.18,-0.85 0.48,-1.15 0.29,-0.29 0.7,-0.48 1.15,-0.48zm7.01 1.14l-7.01 0c-0.13,0 -0.25,0.06 -0.34,0.14 -0.09,0.09 -0.14,0.21 -0.14,0.34l0 1.84 4.46 0c0.45,0 0.85,0.18 1.15,0.48 0.29,0.29 0.48,0.7 0.48,1.15l0 5.45 1.42 0c0.13,0 0.25,-0.06 0.34,-0.14 0.09,-0.09 0.14,-0.21 0.14,-0.34l0 -8.43c0,-0.13 -0.06,-0.25 -0.14,-0.34 -0.09,-0.09 -0.21,-0.14 -0.34,-0.14z"/>
 </g>
</svg>
