<?xml version="1.0" encoding="UTF-8"?>
<!DOCTYPE svg PUBLIC "-//W3C//DTD SVG 1.1//EN" "http://www.w3.org/Graphics/SVG/1.1/DTD/svg11.dtd">
<!-- Creator: CorelDRAW 2020 (64-Bit) -->
<svg xmlns="http://www.w3.org/2000/svg" xml:space="preserve" width="7.4676mm" height="4.0543mm" version="1.1" style="shape-rendering:geometricPrecision; text-rendering:geometricPrecision; image-rendering:optimizeQuality; fill-rule:evenodd; clip-rule:evenodd"
viewBox="0 0 145.73 79.12"
 xmlns:xlink="http://www.w3.org/1999/xlink"
 xmlns:xodm="http://www.corel.com/coreldraw/odm/2003">
 <defs>
  <style type="text/css">
   <![CDATA[
    .fil0 {fill:black}
   ]]>
  </style>
 </defs>
 <g id="Layer_x0020_1">
  <metadata id="CorelCorpID_0Corel-Layer"/>
  <g id="_2065223580432">
   <path class="fil0" d="M38.71 39.56c0,8.52 3,15.59 8.16,22 0.71,0.87 1.58,1.72 2.08,2.47 -2.16,-0.51 -7.86,-3.5 -10.15,-4.65 -4.54,-2.27 -9.41,-5.91 -13.51,-8.97 -3.46,-2.58 -6.08,-5.48 -7.89,-6.91 -1.69,-1.35 -2.54,-2.15 -3.74,-3.94 1.75,-2.62 9.14,-9 11.79,-10.98 8.1,-6.05 9.53,-6.91 18.85,-11.61 1.42,-0.72 3.95,-1.82 5.51,-2.18l4.27 4.55c3.21,-2.15 2.51,-2.68 7.97,-5.12 6.67,-2.99 15.44,-3 22.01,0.18 1.56,0.76 3.05,1.49 4.38,2.45l6.99 6.95c5.39,7.32 6.65,18.54 2.58,26.94 -0.76,1.56 -1.49,3.05 -2.45,4.38 -2.34,3.23 -3.75,4.64 -6.95,6.99 -8.92,6.56 -22.3,6.64 -31.31,0.12 -2.53,-1.83 -3.2,-2.46 -5.42,-4.83 -0.64,-0.68 -0.91,-1.23 -1.45,-1.97 -3.06,-4.17 -5.16,-10.33 -5.16,-15.62 0,-1.38 0.19,-2.18 0.31,-3.68 0.11,-1.36 0.55,-2.21 0.55,-3.72 -2.27,0 -4.13,-0.85 -6.55,-0.85 0,1.33 -0.85,4.9 -0.85,7.97zm58.06 -24.48c2.16,0.51 7.87,3.5 10.16,4.65 5.78,2.88 12.54,8.12 17.54,12.34 0.85,0.72 1.17,0.9 1.98,1.72 2.48,2.51 3.82,3.08 5.62,5.77 -1.08,1.61 -1.98,2.59 -3.58,3.82l-5.85 5.25c-0.76,0.61 -1.18,1.03 -2.03,1.67 -1.6,1.19 -2.77,2.15 -4.42,3.27 -4.39,2.97 -14.52,9.34 -19.41,10.48 0.98,-1.47 2.47,-2.59 4.61,-5.92 0.37,-0.59 0.53,-0.76 0.89,-1.39 2,-3.61 2.69,-5.09 3.77,-9.32 2.75,-10.83 -0.32,-21.32 -7.19,-29.85 -0.7,-0.88 -1.57,-1.72 -2.08,-2.47zm-96.77 24.48c1.8,2.69 2.79,3.55 4.62,5.62 0.7,0.8 0.9,1.19 1.71,1.99l5.12 5.12c6.89,6.37 18.78,15.07 27.17,18.65 11.5,4.91 20.38,8.17 34.52,8.17 8.85,0 17,-1.87 23.8,-4.09 9.47,-3.09 17.23,-7.51 25.32,-13.11 2.54,-1.76 7.95,-5.83 9.87,-7.78l3.56 -3.27c1.25,-1.25 2.29,-2.31 3.56,-3.56l6.47 -7.76c-0.94,-1.41 -1.88,-2.48 -2.96,-3.87l-14.18 -13.72 -5.97 -4.56c-8.91,-5.93 -14.9,-9.76 -25.45,-13.26 -18.5,-6.14 -35.4,-5.4 -53.38,1.78 -1.86,0.74 -3.12,1.39 -4.96,2.15 -5.9,2.44 -20.26,11.82 -25.24,16.89l-8.71 8.65c-1.51,1.89 -2.61,2.55 -4.88,5.94z"/>
   <path class="fil0" d="M60.06 26.18c1.52,2.28 7.35,8.05 8.82,10.25l-13.66 -2.28c-1.71,7.33 -0.71,13.1 4.62,18.43 11.96,11.96 31.52,2.88 31.52,-13.02 0,-13.63 -15.26,-23.95 -28.73,-15.36 -0.92,0.59 -1.73,1.41 -2.57,1.98z"/>
  </g>
 </g>
</svg>
