<?xml version="1.0" encoding="UTF-8"?>
<!DOCTYPE svg PUBLIC "-//W3C//DTD SVG 1.1//EN" "http://www.w3.org/Graphics/SVG/1.1/DTD/svg11.dtd">
<!-- Creator: CorelDRAW 2020 (64-Bit) -->
<svg xmlns="http://www.w3.org/2000/svg" xml:space="preserve" width="5.9008mm" height="5.903mm" version="1.1" style="shape-rendering:geometricPrecision; text-rendering:geometricPrecision; image-rendering:optimizeQuality; fill-rule:evenodd; clip-rule:evenodd"
viewBox="0 0 14.93 14.94"
 xmlns:xlink="http://www.w3.org/1999/xlink"
 xmlns:xodm="http://www.corel.com/coreldraw/odm/2003">
 <defs>
  <style type="text/css">
   <![CDATA[
    .fil0 {fill:#FBFBFB}
   ]]>
  </style>
 </defs>
 <g id="Layer_x0020_1">
  <metadata id="CorelCorpID_0Corel-Layer"/>
  <path class="fil0" d="M8.32 3.11c0.04,-0.05 -0.13,-0.03 0.12,-0.1 0.18,-0.05 0.12,0.04 0.13,0.05l-0.25 0.05 0.02 0.24c-0.01,0 -0.09,0 -0.1,0 -0.03,0.42 -0.26,0.2 -0.69,0.3l-0.04 -0.31c-0.19,0.13 -0.1,0.07 -0.12,0.34 -0.25,0.03 -0.41,0.14 -0.55,0.26 -0.18,0.15 -0.31,0.15 -0.52,0.24 0.16,0.14 0.26,0.17 0.19,0.46 -0.28,0.12 -0.62,-0.12 -0.69,0.04 -0.09,0.23 -0.16,0.42 -0.13,0.68 0.5,0.22 0.66,0.04 0.85,-0.32 0.15,-0.27 0.4,-0.4 0.73,-0.36 0.25,0.02 0.36,0.1 0.49,0.25 0.13,0.15 0.18,0.14 0.26,0.27 0.01,0.01 0,0.17 0.04,0.08 0,-0.01 0.01,0.03 0.02,0.04 -0,-0.32 -0.08,-0.2 0.13,-0.26 -0.25,-0.16 -0.48,-0.23 -0.54,-0.53 0.09,0.02 0.15,0.05 0.26,0.12 0.67,0.46 0.21,0.32 0.65,0.62 0.12,-0.23 -0.03,-0.29 0.3,-0.29 0.29,0.59 0.45,0.45 0.97,0.33l-0.08 0.61c-0.19,0.03 -0.45,0.05 -0.64,0.07 -0.28,0.02 -0.26,-0.1 -0.52,-0.11 -0.25,0.17 -0.15,0.26 -0.5,0.28 -0.14,-0.25 -0.36,-0.27 -0.63,-0.36 0.11,-0.2 0.11,-0.08 0.03,-0.36 -0.27,-0.05 -0.95,0.1 -1.3,0.11 -0.38,0.01 -0.5,-0.04 -0.72,0.32 -0.44,0.69 -0.71,0.31 -0.9,0.98l-0.26 1.25c0.36,0.24 0.35,1.11 1.23,1.13 0.7,0.01 1.31,-0.36 1.84,0.19 0.01,0.24 -0.1,0.47 -0.09,0.53 0.01,0.15 0.81,0.94 0.43,1.5 -0.32,0.48 0.11,0.4 0.17,0.92 0.04,0.35 0.11,0.24 0.24,0.46 0.25,0.4 -0.17,0.47 1.1,0.08 0.39,-0.12 0.5,-0.15 0.55,-0.57 0.69,-0.27 -0.1,-0.48 0.73,-0.94 0.43,-0.24 0.17,-0.57 0.34,-0.94 0.34,-0.72 1.08,-1.7 1.01,-2.54 -0.23,0.04 -0.03,-0.01 -0.2,0.08 -0.66,0.35 -0.42,0.15 -0.67,-0.1 -0.09,-0.08 -0.13,-0.05 -0.23,-0.15l-0.87 -1.43c0.5,0.04 0.92,1.27 1.22,1.66 0.36,-0.1 0.51,-0.41 0.72,-0.62 0.24,-0.23 0.34,-0.49 0.39,-0.88l-0.41 -0.34c-0.04,0.22 -0,0.19 -0.15,0.29 -0.12,-0.03 -0.06,-0.02 -0.12,-0.06 -0.16,-0.12 -0.25,-0.16 -0.46,-0.49l0.1 -0.07c0.15,0.06 0.24,0.16 0.4,0.3 0.54,0 0.54,0.05 0.94,-0.18 0.25,0.14 0.3,0.09 0.36,0.34 0.14,0.03 0.07,0.02 0.21,-0.02l0.59 1.3c0.13,-0.52 0,-0.57 -0.03,-1.01 -0.03,-0.36 -0.01,-0.74 0.05,-1.08 0.34,0.46 0.38,1.98 0.32,2.63 -0.08,0.84 -0.31,1.62 -0.65,2.29 -0.27,0.52 -0.57,0.91 -0.89,1.36l-0.51 0.56c-0.43,0.42 -0.94,0.74 -1.48,1.03 -2.03,1.09 -4.91,0.96 -6.83,-0.45l-1.47 -1.43 0.26 -0.11c0.01,-0.37 -0.13,-0.68 -0.01,-0.89 0.17,-0.3 0.29,-0.43 0.02,-0.76 -0.22,-0.27 -0.5,-0.44 -0.65,-0.64 -0.02,-0.03 -0.08,-0.12 -0.11,-0.16l-0.27 -0.21c0.1,-0.33 0.04,-0.64 -0.15,-0.87 -0.19,-0.24 -0.22,-0.48 -0.22,-0.86 -0.23,-0.16 -0.2,-0.18 -0.15,-0.54 0.03,-0.18 0.06,-0.39 0.14,-0.56 0.08,-0.18 0.18,-0.69 0.34,-1.05 0.21,-0.48 0.41,-0.94 0.84,-1.24 0.09,-0.06 0.15,-0.07 0.26,-0.12 0.29,-0.15 0.21,-0.1 0.29,-0.07l0.25 0.02c-0.03,-0.12 -0.04,-0.04 -0.05,-0.15l0.15 -0.19c-0.02,-0.1 0.05,0.01 -0.07,-0.11l0.16 -0.04c0.21,0.08 0.08,0.18 0.48,0.07 0.14,-0.17 0.1,-0.23 0.2,-0.38 0.08,-0.14 0.17,-0.17 0.29,-0.33l-0.14 -0.02c0.1,-0.09 0.27,-0.18 0.32,-0.38 -0.32,0.08 -0.47,0.27 -0.76,0.36 0.3,-0.64 1.35,-0.69 1.39,-0.71 -0.04,-0.09 -0.03,-0.02 -0,-0.1l0.15 -0.08 0.18 -0.03c-0.1,-0.07 -0.09,-0.02 -0.06,-0.08 0.49,-0.11 0.79,-0.26 1.34,-0.32 0.01,0.04 0.01,0.02 -0.02,0.17l0.08 -0.02c0.12,0.21 0.32,0.13 0.62,0.36 0.02,0.1 1.02,0.07 1.19,-0.25l0.44 0.02c0.01,-0.01 0.02,-0.03 0.02,-0.04l0.38 0.09 -0.34 -0.07c0.09,0.2 0.08,0.16 0.22,0.28l0.19 0.2c0,-0.01 0.02,0.03 0.03,0.04l-0.15 0.08c-0.01,-0.01 -0.02,0.02 -0.03,0.02l0.37 0.21c-0.39,0 -0.32,0.22 -0.57,0.34 -0.08,-0.15 0.04,-0.09 -0.15,-0.11l0.15 0.11c-0.22,0.24 -0.02,0.33 -0.45,0.15l0.17 -0.06c0.11,-0.04 0.04,-0 0.13,-0.05 -0.08,-0.08 0.15,-0.03 -0.28,-0.11 -0.74,-0.13 -0.47,-0.29 -1.04,0.41 -0.1,0.12 -0.2,0.16 -0.34,0.28 0,0.42 0.11,0.31 0.37,0.18l0.16 0.34c0.58,-0.37 -0.05,-0.83 0.51,-0.91 -0.05,0.2 -0.09,0.1 -0.11,0.36l0.19 0.15zm-5.05 0.28c0.08,0 0.06,-0.02 0.06,0.07 0,-0 0.12,-0.08 0.13,-0.09l0.07 -0.25 -0.29 0.14 0.03 0.13zm5.83 -1.37c-0.36,-0.33 -0.08,-0 -0.3,-0.44 -0.2,0.2 0.07,0.45 0.3,0.44zm-1.57 -0.35l0.11 0.14 0.22 -0.07 -0.08 -0.19c-0.14,0.03 -0.17,0.02 -0.25,0.11zm-1.61 0.9c0.12,0.13 0.32,0.15 0.39,-0.05 -0.13,-0.07 -0.34,-0.06 -0.39,0.05zm0.12 1.22c0.24,-0.01 0.32,-0.07 0.33,-0.27 -0.05,-0.02 0.11,-0.13 -0.16,-0.01 -0.08,0.04 -0.14,0.21 -0.17,0.28zm0.74 -0.1c-0.32,-0.44 0,-0.21 -0.11,-0.42 -0.06,-0.11 -0.17,-0.1 -0.22,0.02 -0.07,0.16 0.03,0.21 0.09,0.31 -0.25,0.23 -0.04,0.12 -0.21,0.37 0.21,-0.02 0.4,0 0.51,-0.15l-0.06 -0.13zm4.13 8.45c0.43,-0 0.8,-1.15 0.77,-1.37 -0.12,0.1 -0.14,0.2 -0.25,0.32 -0.12,0.13 -0.18,0.15 -0.31,0.22 -0.18,0.65 -0.29,0.51 -0.2,0.83zm-6.18 -9.51c0.21,-0.08 0.41,-0.27 0.6,-0.32 0.28,-0.08 0.5,-0.07 0.8,-0.11l0.18 -0.13c0.22,-0.13 0.46,-0.37 0.81,-0.59 -0.05,-0.06 -0.03,-0 -0.05,-0.11 -0.21,-0.04 -0.77,-0.11 -0.98,-0.01l-0.65 0.53c-0.11,0.06 -0.73,0.17 -0.71,0.73zm3.88 -2.53c-0.29,-0.03 -0.61,-0.07 -0.78,-0.08 -5.59,-0.24 -9.19,5.28 -7.36,10.09 0.38,1.01 1.14,2.16 1.83,2.77 1.27,1.12 2.54,1.81 4.35,2.02 4.29,0.49 7.71,-2.72 8.2,-6.42 0.58,-4.38 -2.56,-7.8 -6.25,-8.38zm-5.15 2.27c-0.05,0.08 0.01,0.02 -0.07,0.09 -0.02,0.02 -0.08,0.04 -0.1,0.05 0.05,-0.14 0.03,-0.1 0.17,-0.14zm0 0c0.04,-0.05 0,-0.02 0.08,-0.08 0.1,-0.08 -0.1,0.04 0.08,-0.04 -0.03,0.03 -0.03,0.04 -0.09,0.08 -0.12,0.09 0.06,-0.02 -0.07,0.03z"/>
 </g>
</svg>
