<svg width="6" height="6" viewBox="0 0 6 6" fill="none" xmlns="http://www.w3.org/2000/svg">
<path fill-rule="evenodd" clip-rule="evenodd" d="M0.905934 1.32603C0.924199 1.30046 1.27488 0.931514 1.3114 0.931514C1.37716 0.931514 1.73149 1.26758 1.84473 1.26758C1.92509 1.26758 2.11139 1.13608 2.3123 1.07032C2.64106 0.960737 2.54973 1.01918 2.65201 0.504126C2.6922 0.292259 2.58626 0.339746 3.21821 0.339746C3.31684 0.339746 3.26205 0.913249 3.43373 1.00457L3.76249 1.11781C4.01454 1.22009 4.04742 1.33698 4.24833 1.18356L4.63188 0.916902C4.67206 0.916902 4.79991 1.06667 4.83279 1.09955C5.0958 1.36255 5.0958 1.22009 4.76338 1.69862C4.599 1.93606 4.73416 1.88857 4.88393 2.33422C4.90219 2.38902 4.91315 2.45111 4.93872 2.4986C4.96794 2.5534 4.99717 2.57531 5.06657 2.59358L5.53414 2.67394C5.56702 2.67759 5.6072 2.67759 5.6072 2.71778V3.22918C5.6072 3.26936 5.58163 3.26571 5.5451 3.27301L5.25652 3.3205C5.12867 3.34242 4.98986 3.34242 4.93872 3.4447C4.91315 3.49949 4.90585 3.55429 4.88393 3.61273C4.86566 3.66022 4.84375 3.71867 4.82183 3.77346C4.66841 4.1424 4.599 4.00724 4.85105 4.37984C4.88758 4.43463 5.00813 4.5844 5.02274 4.63919L4.63188 5.03736C4.54421 5.01179 4.18257 4.69764 4.10586 4.69764C3.95609 4.69764 3.85016 4.81453 3.60542 4.8949C3.34972 4.97526 3.36798 4.93508 3.31319 5.26384L3.2657 5.54511C3.25839 5.57799 3.26205 5.61817 3.22186 5.61817C2.62644 5.61817 2.68489 5.662 2.65932 5.50493C2.65201 5.46475 2.64471 5.41726 2.6374 5.36612C2.54973 4.85106 2.61549 5.02275 2.16983 4.83645C1.90683 4.72686 1.91413 4.63919 1.71688 4.778C1.22008 5.12503 1.36255 5.11407 1.1178 4.86933C0.88767 4.63919 0.880364 4.69399 1.00456 4.52961C1.06301 4.44924 1.26026 4.20085 1.26026 4.11318C1.26026 4.04012 1.12876 3.84287 1.06666 3.65657C1.0484 3.60177 1.03379 3.53968 1.01187 3.48853C0.949769 3.34607 0.767125 3.36068 0.53334 3.31685C0.478547 3.30589 0.390877 3.28763 0.34339 3.28763C0.321473 3.1963 0.321473 2.79814 0.34339 2.70682L0.712331 2.64837C1.10684 2.57166 0.935158 2.59358 1.11415 2.19176C1.23104 1.92875 1.30775 1.91049 1.1799 1.7388L0.898629 1.33698L0.905934 1.32603ZM2.26481 0.734258C2.22463 0.737911 2.09678 0.789051 2.05659 0.803663C1.99815 0.82558 1.91413 0.880373 1.85934 0.894985C1.81916 0.869415 1.78263 0.836539 1.73879 0.807316C1.60729 0.715994 1.47213 0.580837 1.31506 0.580837C1.10319 0.580837 0.982645 0.756175 0.869406 0.869415C0.69772 1.0411 0.569869 1.1032 0.569869 1.3589C0.569869 1.46849 0.657538 1.57077 0.708679 1.64017C0.737902 1.68401 0.763472 1.72054 0.796348 1.76072C0.829224 1.80455 0.854794 1.84839 0.88767 1.89222C0.8621 1.92145 0.843835 1.98355 0.818265 2.03103C0.719637 2.23194 0.770778 2.27943 0.668497 2.29769C0.602745 2.30865 0.547951 2.31596 0.478547 2.32692C0.358001 2.34883 0.233803 2.35979 0.157093 2.42189C0.0840348 2.48034 0.00732422 2.57531 0.00732422 2.70316V3.26206C0.00732422 3.41913 0.12787 3.55063 0.244762 3.59082L0.737902 3.67848C0.741555 3.72597 0.789042 3.83921 0.807307 3.8867C0.829224 3.94515 0.884017 4.02916 0.898629 4.08396L0.72329 4.3287C0.67215 4.40176 0.58448 4.50038 0.58448 4.62093C0.58448 4.8401 0.752513 4.957 0.865753 5.07024C1.05936 5.26384 1.25661 5.52319 1.58172 5.2821C1.64382 5.23461 1.70226 5.19809 1.76436 5.15425C1.79724 5.12868 1.81916 5.11407 1.85203 5.0885C1.91048 5.04466 1.95797 5.10311 2.06755 5.14695C2.10773 5.16521 2.14792 5.17617 2.1881 5.19078C2.29768 5.23096 2.27211 5.19078 2.30499 5.38804C2.33787 5.5926 2.36344 5.94693 2.6995 5.94693H3.25839C3.3972 5.94693 3.5141 5.8483 3.56889 5.75698C3.61272 5.67661 3.63829 5.46109 3.65656 5.34785C3.67848 5.20539 3.66752 5.23096 3.75153 5.20174C3.81729 5.17617 3.87573 5.1579 3.93418 5.12868C4.13509 5.0264 4.06933 5.07024 4.39444 5.28576C4.73781 5.51589 4.91315 5.24923 5.16885 4.99352C5.34054 4.82184 5.36976 4.80357 5.36976 4.59171C5.36976 4.43463 5.06657 4.11683 5.06657 4.0803L5.18712 3.78442C5.23095 3.67483 5.20904 3.67849 5.27844 3.66753C5.44282 3.63465 5.69487 3.62369 5.8008 3.53968C5.87386 3.48123 5.95057 3.38625 5.95057 3.2584V2.67759C5.95057 2.56435 5.86655 2.46207 5.79715 2.41459C5.70217 2.34518 5.44647 2.31961 5.29305 2.29404C5.2273 2.28308 5.23095 2.29039 5.19442 2.1808C5.1652 2.08948 5.07753 1.91779 5.06657 1.87761C5.16885 1.72784 5.38072 1.49406 5.38072 1.33333C5.38072 1.2347 5.32958 1.12877 5.27844 1.07398C5.21634 1.00822 5.15789 0.953431 5.09214 0.887679C4.92046 0.715994 4.7159 0.434721 4.39444 0.672159C4.36157 0.697729 4.11317 0.894985 4.06203 0.887679C4.03281 0.880373 3.82459 0.767134 3.66021 0.730605L3.57254 0.248424C3.53236 0.127879 3.3972 0.0109863 3.24378 0.0109863H2.68489C2.53512 0.0109863 2.40727 0.11692 2.35613 0.252077L2.26846 0.745217L2.26481 0.734258Z" fill="black"/>
<path fill-rule="evenodd" clip-rule="evenodd" d="M2.03104 2.99541C2.03104 2.65934 2.16254 2.39633 2.42555 2.20273C2.46208 2.17351 2.51687 2.14063 2.56436 2.11871C3.17439 1.81918 3.91593 2.28309 3.91593 2.926C3.91593 3.27668 3.80269 3.53603 3.52141 3.7406C2.94426 4.16798 2.03104 3.76251 2.03104 2.99541V2.99541ZM4.26295 2.97349C4.26295 1.95068 3.09037 1.31508 2.2429 1.9178C1.64383 2.34154 1.50502 3.17075 1.95067 3.75155C2.47303 4.43099 3.50315 4.43464 4.02551 3.71137C4.14971 3.53969 4.26295 3.26207 4.26295 2.97349Z" fill="black"/>
</svg>
