<svg width="6" height="6" viewBox="0 0 6 6" fill="none" xmlns="http://www.w3.org/2000/svg">
<g clip-path="url(#clip0_173_20)">
<path d="M0.993776 1.92886C1.27127 1.92886 1.5185 2.03986 1.70013 2.22149L1.71022 2.23158L3.27429 1.32846C3.23897 1.22755 3.21879 1.11655 3.21879 1.00051C3.21879 0.723015 3.32979 0.475791 3.51142 0.294158C3.69305 0.112524 3.94028 0.00152588 4.21777 0.00152588C4.49527 0.00152588 4.74249 0.112524 4.92412 0.294158C5.10576 0.475791 5.21676 0.723015 5.21676 1.00051C5.21676 1.27296 5.10576 1.52523 4.92412 1.70182C4.74249 1.88345 4.49527 1.99445 4.21777 1.99445C3.94532 1.99445 3.6981 1.88345 3.51646 1.70686L1.94231 2.61503C1.97258 2.71089 1.99276 2.81685 1.99276 2.92784C1.99276 2.99848 1.98267 3.06911 1.97258 3.13975L3.52655 4.1791L3.53665 4.16396C3.71828 3.98233 3.9655 3.87133 4.243 3.87133C4.52049 3.87133 4.76772 3.98233 4.94935 4.16396C5.13098 4.34559 5.24198 4.59282 5.24198 4.87031C5.24198 5.14276 5.13098 5.39503 4.94935 5.57162C4.76772 5.75325 4.52049 5.86425 4.243 5.86425C3.97055 5.86425 3.71828 5.75325 3.54169 5.57162C3.36006 5.38999 3.24906 5.14276 3.24906 4.87031C3.24906 4.76436 3.2642 4.65841 3.29951 4.56255L1.78086 3.54843C1.75563 3.5787 1.73545 3.60392 1.70517 3.62915C1.52354 3.81078 1.27632 3.92178 0.998822 3.92178C0.726372 3.92178 0.474103 3.81078 0.297515 3.62915C0.115881 3.44752 0.00488281 3.20029 0.00488281 2.92784C0.00488281 2.65035 0.115881 2.40312 0.297515 2.22149C0.479148 2.03986 0.726372 1.92886 1.00387 1.92886H0.993776ZM4.62645 4.48182C4.52554 4.38091 4.38931 4.32037 4.23795 4.32037C4.08659 4.32037 3.95037 4.38091 3.84946 4.48182C3.7536 4.58273 3.68801 4.71895 3.68801 4.87031C3.68801 5.02167 3.74855 5.1579 3.84946 5.25881C3.95037 5.35972 4.08659 5.42026 4.23795 5.42026C4.38931 5.42026 4.52554 5.35972 4.62645 5.25881C4.72735 5.1579 4.7879 5.02167 4.7879 4.87031C4.7879 4.71895 4.72735 4.58273 4.62645 4.48182ZM4.60122 0.612016C4.50031 0.511109 4.36409 0.450564 4.21273 0.450564C4.06137 0.450564 3.92514 0.511109 3.82423 0.612016C3.72837 0.712924 3.66278 0.849149 3.66278 1.00051C3.66278 1.15187 3.72332 1.2881 3.82423 1.389C3.92514 1.48991 4.06137 1.55046 4.21273 1.55046C4.36409 1.55046 4.50031 1.48991 4.60122 1.389C4.70213 1.29314 4.76267 1.15187 4.76267 1.00051C4.76267 0.849149 4.70213 0.712924 4.60122 0.612016ZM1.38227 2.53935C1.28136 2.43844 1.14514 2.3779 0.993776 2.3779C0.842415 2.3779 0.70619 2.43844 0.605283 2.53935C0.50942 2.64026 0.443831 2.77648 0.443831 2.92784C0.443831 3.07921 0.504375 3.21543 0.605283 3.31634C0.70619 3.41725 0.842415 3.47779 0.993776 3.47779C1.14514 3.47779 1.28136 3.41725 1.38227 3.31634C1.48318 3.22048 1.54372 3.07921 1.54372 2.92784C1.54372 2.77648 1.48318 2.64026 1.38227 2.53935Z" fill="black"/>
</g>
<defs>
<clipPath id="clip0_173_20">
<rect width="5.2371" height="5.8607" fill="white"/>
</clipPath>
</defs>
</svg>
