<?xml version="1.0" encoding="UTF-8"?>
<!DOCTYPE svg PUBLIC "-//W3C//DTD SVG 1.1//EN" "http://www.w3.org/Graphics/SVG/1.1/DTD/svg11.dtd">
<!-- Creator: CorelDRAW 2020 (64-Bit) -->
<svg xmlns="http://www.w3.org/2000/svg" xml:space="preserve" width="5.3616mm" height="6mm" version="1.1" style="shape-rendering:geometricPrecision; text-rendering:geometricPrecision; image-rendering:optimizeQuality; fill-rule:evenodd; clip-rule:evenodd"
viewBox="0 0 34.23 38.3"
 xmlns:xlink="http://www.w3.org/1999/xlink"
 xmlns:xodm="http://www.corel.com/coreldraw/odm/2003">
 <defs>
  <style type="text/css">
   <![CDATA[
    .fil0 {fill:#373435;fill-rule:nonzero}
   ]]>
  </style>
 </defs>
 <g id="Layer_x0020_1">
  <metadata id="CorelCorpID_0Corel-Layer"/>
  <path class="fil0" d="M6.51 12.59c1.8,0 3.43,0.73 4.6,1.91l0.06 0.06 10.23 -5.91c-0.23,-0.67 -0.36,-1.39 -0.36,-2.13 0,-1.8 0.73,-3.43 1.91,-4.6 1.18,-1.18 2.81,-1.91 4.6,-1.91 1.8,0 3.43,0.73 4.6,1.91 1.18,1.18 1.91,2.81 1.91,4.6 0,1.79 -0.73,3.42 -1.91,4.6 -1.18,1.18 -2.81,1.91 -4.6,1.91 -1.79,0 -3.41,-0.72 -4.59,-1.89l-10.28 5.93c0.21,0.64 0.32,1.32 0.32,2.03 0,0.47 -0.05,0.94 -0.15,1.38l10.16 6.79 0.08 -0.08c1.18,-1.18 2.81,-1.91 4.6,-1.91 1.8,0 3.43,0.73 4.6,1.91 1.18,1.18 1.91,2.81 1.91,4.6 0,1.79 -0.73,3.42 -1.91,4.6 -1.18,1.18 -2.81,1.91 -4.6,1.91 -1.79,0 -3.42,-0.73 -4.6,-1.91l-0.01 -0.01c-1.18,-1.18 -1.91,-2.8 -1.91,-4.6 0,-0.7 0.11,-1.37 0.31,-2l-9.92 -6.63c-0.15,0.19 -0.31,0.37 -0.48,0.54 -1.18,1.18 -2.81,1.91 -4.6,1.91 -1.79,0 -3.42,-0.73 -4.6,-1.91l-0.01 -0.01c-1.18,-1.18 -1.91,-2.8 -1.91,-4.6 0,-1.8 0.73,-3.43 1.91,-4.6 1.18,-1.18 2.81,-1.91 4.6,-1.91zm23.73 16.68c-0.65,-0.65 -1.54,-1.05 -2.52,-1.05 -0.99,0 -1.88,0.4 -2.53,1.04 -0.64,0.65 -1.04,1.54 -1.04,2.53 0,0.99 0.4,1.88 1.04,2.53 0.65,0.64 1.54,1.04 2.53,1.04 0.99,0 1.88,-0.4 2.52,-1.05 0.65,-0.64 1.05,-1.54 1.05,-2.52 0,-0.99 -0.4,-1.88 -1.05,-2.52zm-0.16 -25.28c-0.65,-0.65 -1.54,-1.05 -2.52,-1.05 -0.99,0 -1.88,0.4 -2.53,1.04 -0.64,0.65 -1.04,1.54 -1.04,2.53 0,0.99 0.4,1.88 1.04,2.53 0.65,0.64 1.54,1.04 2.53,1.04 0.99,0 1.88,-0.4 2.52,-1.05 0.65,-0.64 1.05,-1.54 1.05,-2.52 0,-0.99 -0.4,-1.88 -1.05,-2.52zm-21.05 12.59c-0.65,-0.65 -1.54,-1.05 -2.52,-1.05 -0.99,0 -1.88,0.4 -2.53,1.04 -0.64,0.65 -1.04,1.54 -1.04,2.53 0,0.99 0.4,1.88 1.04,2.53 0.65,0.64 1.54,1.04 2.53,1.04 0.99,0 1.88,-0.4 2.52,-1.04 0.65,-0.64 1.05,-1.54 1.05,-2.53 0,-0.99 -0.4,-1.88 -1.05,-2.52z"/>
 </g>
</svg>
