<?xml version="1.0" encoding="UTF-8"?>
<!DOCTYPE svg PUBLIC "-//W3C//DTD SVG 1.1//EN" "http://www.w3.org/Graphics/SVG/1.1/DTD/svg11.dtd">
<!-- Creator: CorelDRAW 2020 (64-Bit) -->
<svg xmlns="http://www.w3.org/2000/svg" xml:space="preserve" width="6.5199mm" height="6mm" version="1.1" style="shape-rendering:geometricPrecision; text-rendering:geometricPrecision; image-rendering:optimizeQuality; fill-rule:evenodd; clip-rule:evenodd"
viewBox="0 0 31.62 29.1"
 xmlns:xlink="http://www.w3.org/1999/xlink"
 xmlns:xodm="http://www.corel.com/coreldraw/odm/2003">
 <defs>
  <style type="text/css">
   <![CDATA[
    .fil0 {fill:black}
   ]]>
  </style>
 </defs>
 <g id="Layer_x0020_1">
  <metadata id="CorelCorpID_0Corel-Layer"/>
  <g id="_2066153162880">
   <path class="fil0" d="M0.5 9.37c-0.95,0.7 -0.43,1.74 0.68,1.43 0.62,-0.2 3.28,-1.24 4.05,-1.03 0.55,0.15 2.9,2.25 2.91,2.94 0,0.15 -0.57,2.9 -0.58,2.93 -0.11,0.27 -0.27,0.36 -0.57,0.46 -0.34,0.16 -4.07,0.07 -4.76,0.07 -1.06,0.03 -1.03,1.2 -0.42,1.47 0.32,0.14 2.15,0.07 2.65,0.07 3.48,0 3.04,-0.25 3.4,2.04 0.02,0.35 0.12,0.75 0.21,1.08 0.11,0.41 0.27,0.78 -0.28,0.83l-0.93 -0.06c-1.91,0.07 -2.99,2.69 -3.76,4.08 -0.31,0.71 -1.36,1.95 0.06,2.31 0.71,-0.01 0.78,-0.54 1.07,-1.05 0.54,-0.94 0.98,-1.99 1.54,-2.91 0.8,-1.31 2.26,-0.95 3.21,-0.22 1.34,1.02 2.61,3.78 4.53,4.98 0.16,0.1 0.3,0.17 0.42,0.22 0.61,0.25 1.14,-0.02 1.33,-0.61 0.1,-1.02 0.03,-13.87 0.03,-15.25 0,-0.99 0.15,-2.8 -0.23,-3.57 -0.37,-0.74 -1.33,-1.51 -2.56,-1.11 -1.63,0.53 -2.71,2.32 -3.53,2.2 -0.61,-0.09 -2.19,-2.16 -3.46,-2.48 -1.16,-0.3 -3.72,0.82 -5.01,1.17z"/>
   <path class="fil0" d="M22.29 10.61c-0.6,-0.14 -0.81,-0.61 -1.24,-0.97 -0.84,-0.73 -2.02,-1.49 -3.19,-1.17 -0.61,0.17 -1.07,0.62 -1.28,1.07 -0.39,0.81 -0.25,2.01 -0.25,2.99l0 13.09c0,0.62 -0.12,2.71 0.15,3.09 0.19,0.27 0.44,0.37 0.71,0.38 1.47,0.02 3.15,-2.4 3.99,-3.46 0.59,-0.74 0.97,-1.64 1.83,-2.06 1.13,-0.55 2.17,-0.6 2.79,0.39 0.15,0.25 1.27,2.3 1.31,2.5 0.18,0.29 0.57,1.14 0.77,1.34 0.45,0.45 1.18,0.13 1.31,-0.45 -0.01,-0.57 -0.48,-1.13 -0.68,-1.67 -0.11,-0.07 -0.91,-1.62 -0.99,-1.85 -0.17,-0.16 -0.32,-0.62 -0.7,-1.09 -1.16,-1.47 -3.02,-1.04 -3.17,-1.09 -0.13,-0.04 -0.19,-0.17 -0.2,-0.35 -0,-0.12 0.52,-2.86 0.57,-2.98 0.2,-0.49 0.63,-0.61 1.83,-0.62 0.71,-0 2.38,0.11 3.39,0.02 1.5,-0.14 1.11,-1.52 0.15,-1.54 -1.33,-0.03 -2.7,0 -4.04,0 -0.55,-0.01 -0.98,-0.02 -1.26,-0.41 -0.13,-0.18 -0.61,-2.85 -0.59,-3.24 0.17,-0.7 0.74,-1.04 1.17,-1.43 0.87,-0.77 1.43,-1.6 2.63,-1.33 0.9,0.2 2.27,0.71 3.16,1.05 0.8,0.3 1.39,-0.52 1.01,-1.15 -0.22,-0.35 -1.04,-0.52 -1.49,-0.68l-0.82 -0.27c-0.74,-0.18 -1.33,-0.43 -1.91,-0.54 -0.65,-0.13 -1.27,-0.08 -2.04,0.44 -0.51,0.34 -0.93,0.74 -1.39,1.14 -0.58,0.5 -0.85,0.97 -1.57,0.84z"/>
   <path class="fil0" d="M22.66 0.24c-0.5,0.09 -0.97,0.26 -1.42,0.49 -0.64,0.33 -1.02,0.63 -1.27,0.76l-0.21 0.17 -0.92 1.05c-0.47,0.61 -0.36,0.71 -1.21,0.35 -1.11,-0.47 -2.17,-0.44 -3.36,-0.1 -1.22,0.39 -0.8,0.57 -1.58,-0.39 -0.21,-0.25 -0.38,-0.5 -0.6,-0.69 -0.22,-0.19 -0.46,-0.37 -0.68,-0.57 -0.96,-0.6 -1.61,-0.91 -2.92,-1.14 -0.6,-0.1 -1.31,-0.11 -1.93,-0.14 -0.4,-0.01 -0.77,-0.05 -1.08,-0.01 -1.01,0.12 -0.89,1.07 0.21,1.05 0.5,-0.01 0.98,-0.01 1.48,-0 0.97,0.01 1.69,0.15 2.47,0.47 0.77,0.29 1.67,0.95 2.06,1.46 0.55,0.72 0.65,1.03 0.5,1.24 -0.85,1.16 -1.48,1.56 -1.41,3.94 2.41,-1.76 7.53,-2.09 10.06,0.02 0.04,-2 -0.5,-2.98 -1.39,-3.94 -0.28,-0.3 -0.11,-0.52 0.32,-1.04 1.71,-2.1 3.6,-2.14 6.11,-2.14 1.2,0 1.31,-0.93 0.19,-1.04 -1.04,-0.1 -3.01,0.15 -3.4,0.21z"/>
  </g>
 </g>
</svg>
