<svg width="6" height="6" viewBox="0 0 6 6" fill="none" xmlns="http://www.w3.org/2000/svg">
<g filter="url(#filter0_d_167_16)">
<path fill-rule="evenodd" clip-rule="evenodd" d="M0.659381 0.000427246H4.58482C4.94729 0.000427246 5.2442 0.297342 5.2442 0.659808V1.10325H4.51155V0.89117C4.51155 0.802481 4.43829 0.733073 4.35346 0.733073H0.894599C0.80591 0.733073 0.736502 0.802481 0.736502 0.89117V5.05568C0.736502 5.14437 0.809766 5.21378 0.894599 5.21378H4.35346C4.44215 5.21378 4.51155 5.14437 4.51155 5.05568V4.8436H5.2442V5.28704C5.2442 5.64951 4.94729 5.94642 4.58482 5.94642H0.659381C0.296914 5.94642 0 5.64951 0 5.28704V0.659808C0 0.297342 0.296914 0.000427246 0.659381 0.000427246V0.000427246Z" fill="black"/>
<path fill-rule="evenodd" clip-rule="evenodd" d="M1.49219 2.58008H3.74025V1.44641L5.2441 2.94641L3.74025 4.45026V3.31659H1.49219V2.58008Z" fill="black"/>
</g>
<defs>
<filter id="filter0_d_167_16" x="-4" y="0.000427246" width="13.2441" height="13.946" filterUnits="userSpaceOnUse" color-interpolation-filters="sRGB">
<feFlood flood-opacity="0" result="BackgroundImageFix"/>
<feColorMatrix in="SourceAlpha" type="matrix" values="0 0 0 0 0 0 0 0 0 0 0 0 0 0 0 0 0 0 127 0" result="hardAlpha"/>
<feOffset dy="4"/>
<feGaussianBlur stdDeviation="2"/>
<feComposite in2="hardAlpha" operator="out"/>
<feColorMatrix type="matrix" values="0 0 0 0 0 0 0 0 0 0 0 0 0 0 0 0 0 0 0.25 0"/>
<feBlend mode="normal" in2="BackgroundImageFix" result="effect1_dropShadow_167_16"/>
<feBlend mode="normal" in="SourceGraphic" in2="effect1_dropShadow_167_16" result="shape"/>
</filter>
</defs>
</svg>
