<?xml version="1.0" encoding="UTF-8"?>
<!DOCTYPE svg PUBLIC "-//W3C//DTD SVG 1.1//EN" "http://www.w3.org/Graphics/SVG/1.1/DTD/svg11.dtd">
<!-- Creator: CorelDRAW 2020 (64-Bit) -->
<svg xmlns="http://www.w3.org/2000/svg" xml:space="preserve" width="6.0022mm" height="6mm" version="1.1" style="shape-rendering:geometricPrecision; text-rendering:geometricPrecision; image-rendering:optimizeQuality; fill-rule:evenodd; clip-rule:evenodd"
viewBox="0 0 30.79 30.78"
 xmlns:xlink="http://www.w3.org/1999/xlink"
 xmlns:xodm="http://www.corel.com/coreldraw/odm/2003">
 <defs>
  <style type="text/css">
   <![CDATA[
    .fil0 {fill:black}
   ]]>
  </style>
 </defs>
 <g id="Layer_x0020_1">
  <metadata id="CorelCorpID_0Corel-Layer"/>
  <g id="_2066171666416">
   <path class="fil0" d="M3.87 25.01l23.06 -0.01 0 1.92 -23.05 0 -0.01 -1.92zm1.91 -5.75l-0.01 1.91 -3.83 0 0.01 -1.92c1.28,-0.01 2.55,0 3.83,0.01zm1.93 -17.31l9.59 0.02 0.01 5.78c1.81,-0.12 3.93,-0.03 5.77,-0.02l0 4.26 -0 5.34 -15.37 -0c0,-5.12 -0.03,-10.25 0,-15.37zm-3.85 11.53c-1.8,-0.03 -3.67,0.48 -3.84,2.58 -0.07,0.87 -0,5.22 -0,6.3 0,0.75 -0.06,4.39 0.02,5.77 0.07,1.18 0.89,2.17 2.02,2.52 0.57,0.17 1.18,0.11 1.8,0.11l19.03 0c1.26,-0 2.52,0 3.78,0 1.76,0 3.43,-0.1 3.96,-2.04 0.22,-0.79 0.12,-5.36 0.12,-6.37 0,-0.73 0.04,-6 -0.03,-6.46 -0.16,-1.1 -1.03,-2.07 -2.1,-2.34 -0.5,-0.13 -1.18,-0.1 -1.71,-0.09 -0,1.28 0,2.56 0,3.85l-1.91 -0.02c-0.02,-1.53 0.15,-11.12 -0.09,-11.66 -0.24,-0.08 -4.99,-4.99 -5.55,-5.55 -0.43,-0.17 -12.08,-0.09 -13.61,-0.06l-0 17.29 -1.91 -0.01 -0.01 -3.84z"/>
   <polygon class="fil0" points="9.62,15.4 21.17,15.4 21.17,13.49 9.62,13.48 "/>
   <polygon class="fil0" points="20.26,11.56 21.17,11.56 21.16,9.65 9.63,9.64 9.62,11.56 "/>
   <polygon class="fil0" points="10.53,7.72 11.85,7.72 12.94,7.72 15.39,7.71 15.39,5.8 10.53,5.8 9.62,5.8 9.62,7.71 "/>
  </g>
 </g>
</svg>
