<?xml version="1.0" encoding="UTF-8"?>
<!DOCTYPE svg PUBLIC "-//W3C//DTD SVG 1.1//EN" "http://www.w3.org/Graphics/SVG/1.1/DTD/svg11.dtd">
<!-- Creator: CorelDRAW 2020 (64-Bit) -->
<svg xmlns="http://www.w3.org/2000/svg" xml:space="preserve" width="5.947mm" height="5.947mm" version="1.1" style="shape-rendering:geometricPrecision; text-rendering:geometricPrecision; image-rendering:optimizeQuality; fill-rule:evenodd; clip-rule:evenodd"
viewBox="0 0 14.22 14.22"
 xmlns:xlink="http://www.w3.org/1999/xlink"
 xmlns:xodm="http://www.corel.com/coreldraw/odm/2003">
 <defs>
  <style type="text/css">
   <![CDATA[
    .fil0 {fill:#FEFEFE}
   ]]>
  </style>
 </defs>
 <g id="Layer_x0020_1">
  <metadata id="CorelCorpID_0Corel-Layer"/>
  <g id="_2065255008928">
   <path class="fil0" d="M1.67 13.41l-0.19 0c-0.31,0 -0.67,-0.35 -0.67,-0.67 0,-0.43 0.03,-0.46 0.37,-0.8l3.19 -3.19c0.08,-0.08 0.15,-0.2 0.27,-0.23 0.03,0.11 0.16,0.22 0.23,0.3l0.53 0.53c0.09,0.07 0.19,0.2 0.3,0.23 -0.03,0.11 -0.36,0.41 -0.47,0.51l-2.94 2.94c-0.15,0.15 -0.34,0.38 -0.62,0.38zm6.92 -13.41l0.65 0c0.65,0.04 1.3,0.2 1.9,0.49 1.15,0.55 2,1.41 2.56,2.55 0.31,0.62 0.48,1.35 0.51,2.08l0 0.43c-0.03,0.73 -0.2,1.46 -0.51,2.08 -0.31,0.61 -0.85,1.38 -1.38,1.79 -0.44,0.34 -0.62,0.48 -1.17,0.75 -1.47,0.73 -3.34,0.65 -4.78,-0.11 -0.09,0.14 -3.06,3.07 -3.33,3.34 -0.53,0.53 -0.76,0.83 -1.59,0.83 -0.75,0 -1.47,-0.73 -1.47,-1.47 0,-0.83 0.3,-1.06 0.83,-1.59 0.27,-0.27 3.2,-3.23 3.34,-3.33 -0.49,-0.92 -0.61,-1.65 -0.61,-2.75 0,-0.7 0.27,-1.57 0.51,-2.05 0.32,-0.64 0.58,-1 1.07,-1.49 0.94,-0.94 2.19,-1.47 3.46,-1.55zm-4.15 5.33c0,-2.44 2.03,-4.44 4.42,-4.44 0.32,0 0.72,0.06 1,0.11 1.98,0.4 3.47,2.27 3.47,4.33 0,0.92 -0.3,1.79 -0.8,2.53 -0.14,0.21 -0.58,0.7 -0.79,0.87 -1.35,1.06 -3.08,1.39 -4.67,0.64 -1.58,-0.73 -2.62,-2.29 -2.62,-4.05z"/>
   <path class="fil0" d="M5.78 5.19c0,0.14 -0.02,0.36 0.22,0.36 0.45,0 -0,-0.98 0.83,-1.9l0.39 -0.39c0.08,-0.08 0.13,-0.1 0.22,-0.16 0.97,-0.65 1.67,-0.22 1.67,-0.66 0,-0.53 -1.43,0.01 -1.55,0.06 -0.68,0.34 -1.15,0.8 -1.49,1.48 -0.15,0.3 -0.3,0.77 -0.3,1.2z"/>
  </g>
 </g>
</svg>
