<svg width="6" height="6" viewBox="0 0 6 6" fill="none" xmlns="http://www.w3.org/2000/svg">
<path fill-rule="evenodd" clip-rule="evenodd" d="M0.706781 5.60825H0.627321C0.497674 5.60825 0.347117 5.46187 0.347117 5.32804C0.347117 5.14821 0.359664 5.13567 0.501857 4.99347L1.83596 3.65937C1.86942 3.62591 1.89869 3.57573 1.94888 3.56318C1.96142 3.60919 2.01579 3.65519 2.04507 3.68865L2.26672 3.9103C2.30436 3.93957 2.34618 3.99394 2.39218 4.00649C2.37964 4.05249 2.24163 4.17796 2.19562 4.21978L0.966074 5.44933C0.903342 5.51206 0.823881 5.60825 0.706781 5.60825V5.60825ZM3.60082 0H3.87266C4.1445 0.0167286 4.41634 0.0836428 4.66727 0.204925C5.14821 0.434942 5.50369 0.794606 5.73789 1.27137C5.86754 1.53066 5.93864 1.83596 5.95118 2.14125V2.32109C5.93864 2.62638 5.86754 2.93168 5.73789 3.19097C5.60825 3.44608 5.38241 3.76811 5.16076 3.93957C4.97674 4.08177 4.90147 4.14032 4.67145 4.25323C4.05667 4.55853 3.27461 4.52507 2.67239 4.20723C2.63475 4.26578 1.39265 5.49115 1.27973 5.60406C1.05808 5.82572 0.961892 5.95118 0.614774 5.95118C0.301114 5.95118 0 5.64589 0 5.33641C0 4.98929 0.125464 4.8931 0.347117 4.67145C0.460035 4.55853 1.6854 3.32062 1.74395 3.2788C1.53903 2.89404 1.48884 2.58874 1.48884 2.12871C1.48884 1.83596 1.60176 1.47211 1.70213 1.27137C1.83596 1.00371 1.94469 0.853156 2.14962 0.648231C2.54274 0.25511 3.06551 0.0334571 3.59664 0H3.60082ZM1.86523 2.22908C1.86523 1.20864 2.71421 0.37221 3.71374 0.37221C3.84757 0.37221 4.01485 0.397303 4.13195 0.418214C4.96002 0.585499 5.58315 1.36756 5.58315 2.22908C5.58315 2.61384 5.45769 2.97768 5.24858 3.28716C5.19003 3.37499 5.00602 3.57991 4.91819 3.65101C4.35361 4.09431 3.6301 4.23232 2.96514 3.91866C2.30436 3.61337 1.86942 2.96095 1.86942 2.2249L1.86523 2.22908Z" fill="#FBFBFB"/>
<path fill-rule="evenodd" clip-rule="evenodd" d="M2.42557 2.1705C2.42557 2.22905 2.4172 2.32106 2.51758 2.32106C2.70577 2.32106 2.51758 1.91121 2.86469 1.52646L3.0278 1.36335C3.06125 1.32989 3.08216 1.32153 3.1198 1.29644C3.52547 1.0246 3.81822 1.20443 3.81822 1.02042C3.81822 0.798763 3.22018 1.0246 3.16999 1.04551C2.8856 1.1877 2.68904 1.38008 2.54685 1.66447C2.48412 1.78993 2.42139 1.98649 2.42139 2.16632L2.42557 2.1705Z" fill="#FBFBFB"/>
</svg>
