<?xml version="1.0" encoding="UTF-8"?>
<!DOCTYPE svg PUBLIC "-//W3C//DTD SVG 1.1//EN" "http://www.w3.org/Graphics/SVG/1.1/DTD/svg11.dtd">
<!-- Creator: CorelDRAW 2020 (64-Bit) -->
<svg xmlns="http://www.w3.org/2000/svg" xml:space="preserve" width="5.2371mm" height="5.8607mm" version="1.1" style="shape-rendering:geometricPrecision; text-rendering:geometricPrecision; image-rendering:optimizeQuality; fill-rule:evenodd; clip-rule:evenodd"
viewBox="0 0 10.38 11.61"
 xmlns:xlink="http://www.w3.org/1999/xlink"
 xmlns:xodm="http://www.corel.com/coreldraw/odm/2003">
 <defs>
  <style type="text/css">
   <![CDATA[
    .fil0 {fill:#FEFEFE;fill-rule:nonzero}
   ]]>
  </style>
 </defs>
 <g id="Layer_x0020_1">
  <metadata id="CorelCorpID_0Corel-Layer"/>
  <path class="fil0" d="M1.97 3.82c0.55,0 1.04,0.22 1.4,0.58l0.02 0.02 3.1 -1.79c-0.07,-0.2 -0.11,-0.42 -0.11,-0.65 0,-0.55 0.22,-1.04 0.58,-1.4 0.36,-0.36 0.85,-0.58 1.4,-0.58 0.55,0 1.04,0.22 1.4,0.58 0.36,0.36 0.58,0.85 0.58,1.4 0,0.54 -0.22,1.04 -0.58,1.39 -0.36,0.36 -0.85,0.58 -1.4,0.58 -0.54,0 -1.03,-0.22 -1.39,-0.57l-3.12 1.8c0.06,0.19 0.1,0.4 0.1,0.62 0,0.14 -0.02,0.28 -0.04,0.42l3.08 2.06 0.02 -0.03c0.36,-0.36 0.85,-0.58 1.4,-0.58 0.55,0 1.04,0.22 1.4,0.58 0.36,0.36 0.58,0.85 0.58,1.4 0,0.54 -0.22,1.04 -0.58,1.39 -0.36,0.36 -0.85,0.58 -1.4,0.58 -0.54,0 -1.04,-0.22 -1.39,-0.58l-0 -0c-0.36,-0.36 -0.58,-0.85 -0.58,-1.39 0,-0.21 0.03,-0.42 0.1,-0.61l-3.01 -2.01c-0.05,0.06 -0.09,0.11 -0.15,0.16 -0.36,0.36 -0.85,0.58 -1.4,0.58 -0.54,0 -1.04,-0.22 -1.39,-0.58l-0 -0c-0.36,-0.36 -0.58,-0.85 -0.58,-1.39 0,-0.55 0.22,-1.04 0.58,-1.4 0.36,-0.36 0.85,-0.58 1.4,-0.58zm7.2 5.06c-0.2,-0.2 -0.47,-0.32 -0.77,-0.32 -0.3,0 -0.57,0.12 -0.77,0.32 -0.19,0.2 -0.32,0.47 -0.32,0.77 0,0.3 0.12,0.57 0.32,0.77 0.2,0.2 0.47,0.32 0.77,0.32 0.3,0 0.57,-0.12 0.77,-0.32 0.2,-0.2 0.32,-0.47 0.32,-0.77 0,-0.3 -0.12,-0.57 -0.32,-0.77zm-0.05 -7.67c-0.2,-0.2 -0.47,-0.32 -0.77,-0.32 -0.3,0 -0.57,0.12 -0.77,0.32 -0.19,0.2 -0.32,0.47 -0.32,0.77 0,0.3 0.12,0.57 0.32,0.77 0.2,0.2 0.47,0.32 0.77,0.32 0.3,0 0.57,-0.12 0.77,-0.32 0.2,-0.19 0.32,-0.47 0.32,-0.77 0,-0.3 -0.12,-0.57 -0.32,-0.77zm-6.38 3.82c-0.2,-0.2 -0.47,-0.32 -0.77,-0.32 -0.3,0 -0.57,0.12 -0.77,0.32 -0.19,0.2 -0.32,0.47 -0.32,0.77 0,0.3 0.12,0.57 0.32,0.77 0.2,0.2 0.47,0.32 0.77,0.32 0.3,0 0.57,-0.12 0.77,-0.32 0.2,-0.19 0.32,-0.47 0.32,-0.77 0,-0.3 -0.12,-0.57 -0.32,-0.77z"/>
 </g>
</svg>
