<svg width="6" height="6" viewBox="0 0 6 6" fill="none" xmlns="http://www.w3.org/2000/svg">
<path fill-rule="evenodd" clip-rule="evenodd" d="M3.28808 1.22883C3.30388 1.20908 3.23671 1.21698 3.33549 1.18932C3.40661 1.16957 3.3829 1.20513 3.38685 1.20908L3.28808 1.22883L3.29598 1.32366C3.29203 1.32366 3.26042 1.32366 3.25647 1.32366C3.24461 1.48961 3.15374 1.40268 2.98384 1.44219L2.96803 1.31971C2.89296 1.37107 2.92852 1.34737 2.92062 1.45405C2.82184 1.4659 2.75862 1.50936 2.70331 1.55678C2.63219 1.61604 2.58082 1.61604 2.49785 1.6516C2.56107 1.70692 2.60058 1.71877 2.57292 1.83336C2.46229 1.88077 2.32795 1.78594 2.30029 1.84916C2.26473 1.94004 2.23707 2.01511 2.24893 2.11784C2.44648 2.20476 2.5097 2.13364 2.58477 1.9914C2.64404 1.88472 2.74282 1.83336 2.87321 1.84916C2.97198 1.85706 3.01545 1.88867 3.06681 1.94794C3.11818 2.00721 3.13793 2.00326 3.16954 2.05462C3.17349 2.05857 3.16954 2.12179 3.18535 2.08623C3.18535 2.08228 3.1893 2.09808 3.19325 2.10203C3.19325 1.9756 3.16164 2.02301 3.24461 1.9993C3.14583 1.93609 3.05496 1.90843 3.03125 1.78989C3.06681 1.7978 3.09052 1.80965 3.13398 1.83731C3.39871 2.01906 3.21695 1.96374 3.3908 2.08228C3.43822 1.9914 3.37895 1.9677 3.50934 1.9677C3.62392 2.20081 3.68714 2.1455 3.8926 2.09808L3.86099 2.3391C3.78592 2.35096 3.68319 2.35886 3.60812 2.36676C3.49749 2.37466 3.50539 2.32725 3.40266 2.3233C3.30388 2.39047 3.34339 2.42603 3.2051 2.43393C3.14979 2.33515 3.06286 2.32725 2.95618 2.29169C2.99964 2.21267 2.99964 2.26008 2.96803 2.14945C2.86135 2.12969 2.59267 2.18896 2.45438 2.19291C2.30424 2.19686 2.25683 2.17711 2.1699 2.31935C1.99605 2.59197 1.88937 2.44183 1.8143 2.70656L1.71157 3.20045C1.85381 3.29528 1.84986 3.63903 2.19756 3.64693C2.47414 3.65088 2.71516 3.50469 2.92457 3.722C2.92852 3.81683 2.88506 3.9077 2.88901 3.93141C2.89296 3.99068 3.20905 4.30282 3.05891 4.52408C2.93247 4.71374 3.10237 4.68213 3.12608 4.88759C3.14188 5.02588 3.16954 4.98241 3.22091 5.06934C3.31968 5.22738 3.15374 5.25504 3.65553 5.10095C3.80963 5.05353 3.85309 5.04168 3.87284 4.87573C4.14547 4.76905 3.83333 4.68608 4.16128 4.50433C4.33118 4.4095 4.22845 4.27911 4.29562 4.13292C4.42995 3.84844 4.72234 3.46123 4.69468 3.12933C4.6038 3.14513 4.68283 3.12538 4.61566 3.16094C4.35488 3.29923 4.44971 3.22021 4.35093 3.12143C4.31537 3.08982 4.29957 3.10167 4.26006 3.06216L3.91631 2.49715C4.11386 2.51295 4.27981 2.99894 4.39835 3.15304C4.54059 3.11353 4.59985 2.99104 4.68283 2.90807C4.77765 2.81719 4.81717 2.71446 4.83692 2.56037L4.67492 2.42603C4.65912 2.51295 4.67492 2.5011 4.61566 2.54061C4.56824 2.52876 4.59195 2.53271 4.56824 2.5169C4.50503 2.46949 4.46947 2.45369 4.38649 2.3233L4.426 2.29564C4.48527 2.31935 4.52083 2.35886 4.58405 2.41417C4.79741 2.41417 4.79741 2.43393 4.95546 2.34305C5.05423 2.39837 5.07399 2.37861 5.0977 2.47739C5.15301 2.48925 5.12535 2.48529 5.18067 2.46949L5.41379 2.98314C5.46515 2.77768 5.41379 2.75792 5.40193 2.58407C5.39008 2.44183 5.39798 2.29169 5.42169 2.15735C5.55603 2.3391 5.57183 2.93968 5.54813 3.1965C5.51652 3.52839 5.42564 3.83658 5.2913 4.10131C5.18462 4.30677 5.06609 4.46086 4.93965 4.63866L4.73814 4.85993C4.56824 5.02588 4.36674 5.15231 4.15337 5.2669C3.35129 5.69757 2.21337 5.6462 1.45475 5.08909L0.87393 4.52408L0.976659 4.48062C0.98061 4.33443 0.925295 4.21194 0.972708 4.12897C1.03988 4.01043 1.08729 3.95907 0.98061 3.82868C0.893685 3.722 0.783054 3.65483 0.723787 3.57581C0.715884 3.56395 0.692177 3.52839 0.680324 3.51259L0.573643 3.42962C0.613155 3.29923 0.589448 3.17674 0.514376 3.08587C0.439305 2.99104 0.427451 2.89621 0.427451 2.74607C0.336575 2.68285 0.348428 2.67495 0.368184 2.53271C0.380038 2.46159 0.391891 2.37861 0.4235 2.31144C0.455109 2.24032 0.494621 2.03882 0.557839 1.89657C0.640813 1.70692 0.719835 1.52517 0.889734 1.40663C0.925295 1.38293 0.949001 1.37898 0.992464 1.35922C1.10705 1.29995 1.07544 1.31971 1.10705 1.33156L1.20583 1.33946C1.19397 1.29205 1.19002 1.32366 1.18607 1.2802L1.24534 1.20513C1.23743 1.16561 1.26509 1.20908 1.21768 1.16166L1.2809 1.14586C1.36387 1.17747 1.31251 1.21698 1.47055 1.17352C1.52587 1.10635 1.51006 1.08264 1.54957 1.02337C1.58118 0.968057 1.61674 0.956204 1.66416 0.892986L1.60884 0.885083C1.64835 0.849523 1.71552 0.813963 1.73528 0.73494C1.60884 0.766549 1.54957 0.841621 1.43499 0.877181C1.55353 0.624308 1.96839 0.604553 1.9842 0.59665C1.96839 0.56109 1.97235 0.588748 1.9842 0.557139L2.04347 0.52553L2.11459 0.513676C2.07508 0.486018 2.07903 0.505774 2.09088 0.482067C2.28449 0.438605 2.40302 0.379338 2.62033 0.355631C2.62428 0.371435 2.62428 0.363533 2.61243 0.4228L2.64404 0.414898C2.69145 0.497872 2.77048 0.466263 2.88901 0.557139C2.89691 0.59665 3.29203 0.584797 3.3592 0.45836L3.53305 0.466263C3.537 0.462312 3.54095 0.454409 3.54095 0.450458L3.69109 0.486018L3.55675 0.45836C3.59231 0.537383 3.58836 0.521579 3.64368 0.568992L3.71875 0.648015C3.71875 0.644064 3.72665 0.659868 3.7306 0.66382L3.67134 0.695429C3.66738 0.691478 3.66343 0.703331 3.65948 0.703331L3.80567 0.786305C3.65158 0.786305 3.67924 0.87323 3.58046 0.920644C3.54885 0.861376 3.59626 0.885083 3.52119 0.877181L3.58046 0.920644C3.49353 1.01547 3.57256 1.05103 3.40266 0.979911L3.46983 0.956204C3.51329 0.940399 3.48563 0.956204 3.52119 0.936448C3.48958 0.904839 3.58046 0.924595 3.41056 0.892986C3.11818 0.841621 3.22486 0.778403 2.99964 1.05498C2.96013 1.1024 2.92062 1.1182 2.8653 1.16561C2.8653 1.33156 2.90877 1.2881 3.0115 1.23673L3.07471 1.37107C3.30388 1.22488 3.05496 1.04313 3.27622 1.01152C3.25647 1.09054 3.24066 1.05103 3.23276 1.15376L3.30783 1.21303L3.28808 1.22883ZM1.29275 1.33946C1.32436 1.33946 1.31646 1.33156 1.31646 1.36712C1.31646 1.36712 1.36387 1.33551 1.36782 1.33156L1.39548 1.23278L1.2809 1.2881L1.29275 1.33946V1.33946ZM3.59626 0.798158C3.45402 0.667771 3.56465 0.798158 3.47773 0.624308C3.39871 0.703331 3.50539 0.802109 3.59626 0.798158ZM2.97594 0.659868L3.0194 0.715184L3.10632 0.687526L3.07471 0.612455C3.0194 0.624308 3.00754 0.620357 2.97594 0.655917V0.659868ZM2.3398 1.01547C2.38722 1.06684 2.46624 1.07474 2.4939 0.995715C2.44253 0.968057 2.35956 0.972008 2.3398 1.01547ZM2.38722 1.49751C2.48204 1.49356 2.51365 1.46985 2.5176 1.39083C2.49785 1.38293 2.56107 1.33946 2.45438 1.38688C2.42278 1.40268 2.39907 1.46985 2.38722 1.49751ZM2.6796 1.458C2.55316 1.28415 2.6796 1.37502 2.63614 1.29205C2.61243 1.24859 2.56897 1.25254 2.54921 1.29995C2.52155 1.36317 2.56107 1.38293 2.58477 1.42244C2.48599 1.51331 2.56897 1.46985 2.5018 1.56863C2.58477 1.56073 2.65984 1.56863 2.70331 1.50936L2.6796 1.458V1.458ZM4.31142 4.79671C4.48132 4.79671 4.62751 4.34233 4.61566 4.2554C4.56824 4.29492 4.56034 4.33443 4.51688 4.38184C4.46947 4.43321 4.44576 4.44111 4.39439 4.46877C4.32327 4.72559 4.27981 4.67027 4.31537 4.79671H4.31142ZM1.86962 1.03918C1.95259 1.00757 2.03161 0.932497 2.10668 0.912741C2.21732 0.881132 2.30424 0.885083 2.42278 0.869279L2.4939 0.817914C2.58082 0.766549 2.67565 0.671722 2.81394 0.584797C2.79418 0.56109 2.80209 0.584797 2.79418 0.541334C2.71121 0.52553 2.48995 0.497872 2.40697 0.537383L2.15015 0.746794C2.10668 0.7705 1.86171 0.813963 1.86962 1.03523V1.03918ZM3.40266 0.0395398C3.28808 0.0276864 3.16164 0.0118819 3.09447 0.00793073C0.885783 -0.0868966 -0.536626 2.09413 0.186432 3.99463C0.336575 4.39369 0.636861 4.84807 0.90949 5.08909C1.41128 5.53162 1.91308 5.80425 2.62824 5.88722C4.32327 6.08083 5.67456 4.81251 5.86817 3.35059C6.09733 1.61999 4.85668 0.268706 3.39871 0.0395398H3.40266ZM1.36782 0.936448C1.34807 0.968057 1.37177 0.94435 1.34016 0.972008C1.33226 0.979911 1.30855 0.987813 1.30065 0.991764C1.32041 0.936448 1.31251 0.952253 1.36782 0.936448V0.936448ZM1.36782 0.936448C1.38363 0.916692 1.36782 0.928546 1.39943 0.904839C1.43894 0.87323 1.35992 0.920644 1.43104 0.889034C1.41919 0.900888 1.41919 0.904839 1.39548 0.920644C1.34807 0.956204 1.41919 0.912741 1.36782 0.932497V0.936448Z" fill="black"/>
</svg>
