<?xml version="1.0" encoding="UTF-8"?>
<!DOCTYPE svg PUBLIC "-//W3C//DTD SVG 1.1//EN" "http://www.w3.org/Graphics/SVG/1.1/DTD/svg11.dtd">
<!-- Creator: CorelDRAW 2020 (64-Bit) -->
<svg xmlns="http://www.w3.org/2000/svg" xml:space="preserve" width="5.2442mm" height="5.9469mm" version="1.1" style="shape-rendering:geometricPrecision; text-rendering:geometricPrecision; image-rendering:optimizeQuality; fill-rule:evenodd; clip-rule:evenodd"
viewBox="0 0 13.6 15.42"
 xmlns:xlink="http://www.w3.org/1999/xlink"
 xmlns:xodm="http://www.corel.com/coreldraw/odm/2003">
 <defs>
  <style type="text/css">
   <![CDATA[
    .fil0 {fill:#FBFBFB}
   ]]>
  </style>
 </defs>
 <g id="Layer_x0020_1">
  <metadata id="CorelCorpID_0Corel-Layer"/>
  <g id="_2065255002640">
   <path class="fil0" d="M1.71 0l10.18 0c0.94,0 1.71,0.77 1.71,1.71l0 1.15 -1.9 0 0 -0.55c0,-0.23 -0.19,-0.41 -0.41,-0.41l-8.97 0c-0.23,0 -0.41,0.18 -0.41,0.41l0 10.8c0,0.23 0.19,0.41 0.41,0.41l8.97 0c0.23,0 0.41,-0.18 0.41,-0.41l0 -0.55 1.9 0 0 1.15c0,0.94 -0.77,1.71 -1.71,1.71l-10.18 0c-0.94,0 -1.71,-0.77 -1.71,-1.71l0 -12c0,-0.94 0.77,-1.71 1.71,-1.71z"/>
   <polygon class="fil0" points="3.87,6.69 9.7,6.69 9.7,3.75 13.6,7.64 9.7,11.54 9.7,8.6 3.87,8.6 "/>
  </g>
 </g>
</svg>
