<?xml version="1.0" encoding="UTF-8"?>
<!DOCTYPE svg PUBLIC "-//W3C//DTD SVG 1.1//EN" "http://www.w3.org/Graphics/SVG/1.1/DTD/svg11.dtd">
<!-- Creator: CorelDRAW 2020 (64-Bit) -->
<svg xmlns="http://www.w3.org/2000/svg" xml:space="preserve" width="4.8663mm" height="3.7997mm" version="1.1" style="shape-rendering:geometricPrecision; text-rendering:geometricPrecision; image-rendering:optimizeQuality; fill-rule:evenodd; clip-rule:evenodd"
viewBox="0 0 19.11 14.92"
 xmlns:xlink="http://www.w3.org/1999/xlink"
 xmlns:xodm="http://www.corel.com/coreldraw/odm/2003">
 <defs>
  <style type="text/css">
   <![CDATA[
    .fil0 {fill:#101010}
   ]]>
  </style>
 </defs>
 <g id="Layer_x0020_1">
  <metadata id="CorelCorpID_0Corel-Layer"/>
  <g id="_2065254986512">
   <path class="fil0" d="M-0 4.79l0 5.3c0,0.39 0.33,0.68 0.68,0.68 0.77,0.01 1.54,-0 2.31,-0 0.15,0 1.73,-0.01 1.83,-0 0.06,0.01 0.09,0.06 0.13,0.09 0.03,0.02 0.03,0.03 0.06,0.05l0.18 0.16c0.05,0.03 0.08,0.08 0.13,0.11 0.03,0.02 0.03,0.03 0.06,0.05 0.03,0.02 0.04,0.03 0.06,0.05 0.03,0.02 0.04,0.03 0.06,0.05l0.86 0.75c0.03,0.02 0.04,0.03 0.06,0.05l1.42 1.23c0.02,0.02 0.04,0.03 0.06,0.05l0.61 0.53c0.13,0.12 0.3,0.26 0.43,0.37 0.16,0.14 0.4,0.37 0.56,0.48 0.44,0.3 1.08,-0 1.08,-0.54l0 -13.61c0,-0.51 -0.68,-0.9 -1.17,-0.46l-0.24 0.21c-0.04,0.04 -0.08,0.07 -0.12,0.11l-0.18 0.16c-0.1,0.1 -0.21,0.18 -0.31,0.27l-1.91 1.65c-0.03,0.02 -0.04,0.03 -0.06,0.05l-0.49 0.43c-0.03,0.02 -0.04,0.03 -0.06,0.05 -0.17,0.16 -0.46,0.38 -0.62,0.53 -0.1,0.1 -0.21,0.17 -0.31,0.26 -0.03,0.02 -0.04,0.03 -0.06,0.05 -0.08,0.07 -0.1,0.13 -0.23,0.13 -1.38,-0.01 -2.76,0.01 -4.14,-0 -0.15,-0 -0.27,0.04 -0.37,0.1 -0.17,0.1 -0.34,0.32 -0.34,0.58z"/>
   <path class="fil0" d="M15.37 0.74c0,0.1 0.01,0.18 0.05,0.27 0.04,0.1 0.09,0.17 0.16,0.25 0.43,0.54 0.62,0.89 0.94,1.44l0.45 0.95c0.23,0.53 0.4,1.15 0.53,1.71 0.07,0.3 0.16,0.9 0.18,1.22l0.03 0.38c0,0.05 -0,0.1 0,0.14 0.04,0.44 -0.02,1.13 -0.05,1.53 -0.03,0.33 -0.09,0.65 -0.16,0.95 -0.12,0.61 -0.31,1.17 -0.52,1.7 -0.27,0.67 -0.75,1.55 -1.19,2.14 -0.16,0.22 -0.4,0.46 -0.4,0.71 0,0.16 0,0.23 0.08,0.38 0.01,0.03 0.01,0.03 0.03,0.05 0.16,0.22 0.36,0.35 0.68,0.3 0.19,-0.03 0.36,-0.14 0.45,-0.27 0.11,-0.14 0.22,-0.27 0.31,-0.42 0.15,-0.23 0.27,-0.4 0.44,-0.65 0.14,-0.23 0.54,-0.94 0.64,-1.19l0.11 -0.25c0.04,-0.09 0.07,-0.17 0.11,-0.26l0.2 -0.53c0.02,-0.05 0.03,-0.09 0.05,-0.13 0.02,-0.05 0.03,-0.09 0.05,-0.14 0.57,-1.76 0.69,-3.55 0.41,-5.39 -0.05,-0.31 -0.15,-0.78 -0.23,-1.07 -0.1,-0.37 -0.18,-0.63 -0.3,-0.98 -0.1,-0.3 -0.33,-0.84 -0.48,-1.14 -0.24,-0.47 -0.37,-0.69 -0.64,-1.13 -0.18,-0.3 -0.36,-0.51 -0.53,-0.76 -0.14,-0.21 -0.38,-0.49 -0.66,-0.49 -0.19,0 -0.31,0.01 -0.48,0.13 -0.16,0.12 -0.28,0.33 -0.28,0.54z"/>
   <path class="fil0" d="M13.57 2.55c0,0.14 0.02,0.23 0.09,0.35l0.7 1.13c0.68,1.3 0.98,2.93 0.78,4.38 -0.05,0.38 -0.14,0.88 -0.25,1.22l-0.09 0.28c-0.08,0.22 -0.14,0.4 -0.24,0.62 -0.02,0.05 -0.05,0.11 -0.08,0.17 -0.15,0.35 -0.52,0.96 -0.72,1.24 -0.07,0.1 -0.13,0.19 -0.16,0.33 -0.03,0.15 -0,0.3 0.05,0.41 0.06,0.11 0.12,0.2 0.22,0.27 0.24,0.18 0.57,0.18 0.82,0 0.11,-0.08 0.2,-0.21 0.28,-0.33 0.02,-0.03 0.03,-0.04 0.05,-0.07 0.03,-0.05 0.06,-0.1 0.1,-0.15 0.03,-0.05 0.06,-0.1 0.09,-0.14 0.02,-0.03 0.03,-0.05 0.05,-0.08 0.02,-0.03 0.03,-0.05 0.05,-0.08 0.12,-0.2 0.23,-0.42 0.34,-0.63 0.43,-0.86 0.66,-1.65 0.82,-2.61 0.04,-0.24 0.07,-0.52 0.09,-0.76 0,-0.04 -0,-0.08 0,-0.12 0.02,-0.22 0.03,-0.48 0.01,-0.71 -0.01,-0.08 0.01,-0.16 -0.01,-0.24l-0.01 -0.23c-0,-0.23 -0.1,-0.85 -0.15,-1.08 -0.2,-1.02 -0.59,-1.99 -1.11,-2.85 -0.06,-0.1 -0.12,-0.2 -0.19,-0.3l-0.2 -0.29c-0.09,-0.12 -0.11,-0.17 -0.23,-0.26 -0.45,-0.34 -1.1,0.01 -1.1,0.54z"/>
   <path class="fil0" d="M11.62 4.51c0,0.14 0.04,0.25 0.1,0.36l0.17 0.29c0.11,0.2 0.21,0.42 0.29,0.65 0.34,0.95 0.39,1.9 0.15,2.89 -0.05,0.21 -0.15,0.5 -0.24,0.7 -0.11,0.25 -0.18,0.39 -0.32,0.62 -0.09,0.15 -0.15,0.26 -0.13,0.48 0.01,0.18 0.09,0.33 0.19,0.43 0.06,0.06 0.1,0.09 0.18,0.13 0.26,0.14 0.6,0.08 0.8,-0.12 0.11,-0.11 0.17,-0.24 0.25,-0.38l0.4 -0.87c0.27,-0.76 0.4,-1.38 0.4,-2.22 0,-0.53 -0.08,-1.04 -0.18,-1.47 -0.06,-0.22 -0.12,-0.42 -0.19,-0.63 -0.08,-0.21 -0.12,-0.32 -0.21,-0.51 -0.01,-0.03 -0.02,-0.04 -0.03,-0.07 -0.08,-0.18 -0.34,-0.65 -0.46,-0.77 -0.33,-0.32 -0.88,-0.23 -1.09,0.17 -0.04,0.08 -0.09,0.21 -0.09,0.33z"/>
  </g>
 </g>
</svg>
